PathFileType	4	(X/Y/Z)	TVC_32_Cal_03_0_static_RCNL2025.trc
DataRate	CameraRate	NumFrames	NumMarkers	Units	OrigDataRate	OrigDataStartFrame	OrigNumFrames
100	100	5	27	mm	100	173	197
Frame#	Time	R_Shoulder			L_Shoulder			C7			J_Notch			R_Elbow			L_Elbow			R_Wrist			L_Wrist			R_Asis			L_Asis			R_Psis			L_Psis			Sacral			Thoracic			Sternum			R_Thigh_Lateral			R_Knee_Lateral			R_Shank_Lateral			R_Ankle_Lateral			R_Heel			R_Toe			L_Thigh_Lateral			L_Knee_Lateral			L_Shank_Lateral			L_Ankle_Lateral			L_Heel			L_Toe		
		X1	Y1	Z1	X2	Y2	Z2	X3	Y3	Z3	X4	Y4	Z4	X5	Y5	Z5	X6	Y6	Z6	X7	Y7	Z7	X8	Y8	Z8	X9	Y9	Z9	X10	Y10	Z10	X11	Y11	Z11	X12	Y12	Z12	X13	Y13	Z13	X14	Y14	Z14	X15	Y15	Z15	X16	Y16	Z16	X17	Y17	Z17	X18	Y18	Z18	X19	Y19	Z19	X20	Y20	Z20	X21	Y21	Z21	X22	Y22	Z22	X23	Y23	Z23	X24	Y24	Z24	X25	Y25	Z25	X26	Y26	Z26	X27	Y27	Z27
173	1.72000000	-157.594208	1472.708374	-34.210323	-165.538483	1453.056641	-414.073334	-221.241623	1517.789673	-221.428833	-57.146492	1421.159546	-214.109634	-190.079056	1155.829102	134.398315	-174.031082	1119.733887	-513.991638	-111.248798	893.144348	100.063831	-87.091125	861.145294	-478.078033	-93.800270	1012.540283	-66.673172	-97.865929	1015.080994	-347.986786	-288.835052	1027.107056	-154.051590	-286.486450	1024.295166	-255.271652	-287.660751	1025.701111	-204.661621	-283.578308	1253.216309	-211.745453	-33.694389	1276.095947	-216.571320	-194.625153	638.587219	-2.076635	-178.637100	501.843781	-48.087994	-228.101303	303.039642	3.774709	-240.489502	82.255547	-60.868477	-293.798126	53.769268	-125.950638	-96.942612	41.749615	-55.755943	-163.478821	680.425781	-434.749298	-186.707031	503.256989	-398.312714	-205.761093	360.919464	-462.845337	-198.750168	76.622665	-425.205505	-265.550873	60.934376	-376.959015	-57.928066	40.947453	-404.487915
174	1.73000000	-157.542923	1472.645874	-34.212349	-165.392212	1453.141357	-414.009277	-221.166840	1517.796021	-221.456085	-57.131237	1421.089111	-214.226334	-190.102081	1155.854614	134.407501	-174.070709	1119.735962	-513.962036	-111.358269	893.104736	100.028831	-87.203480	861.161194	-478.013779	-93.792297	1012.478271	-66.764030	-97.869743	1015.066467	-348.000977	-288.821655	1027.102539	-154.101761	-286.420563	1024.356689	-255.286926	-287.621109	1025.729614	-204.694344	-283.534332	1253.274658	-211.748215	-33.594551	1276.195190	-216.463882	-194.538376	638.667297	-1.943839	-178.622147	501.870758	-48.098709	-228.169357	303.324493	4.187598	-240.328903	82.326736	-60.950989	-293.820465	53.845535	-125.900864	-96.936760	41.742561	-55.787689	-163.392853	680.408508	-434.799927	-186.626846	503.186310	-398.300385	-205.813065	360.856049	-462.862427	-198.786575	76.627159	-425.262878	-265.553894	60.920692	-376.933990	-57.916473	40.941734	-404.445099
175	1.74000000	-157.557755	1472.656738	-34.257103	-165.329483	1453.138794	-413.956360	-221.091751	1517.849609	-221.502945	-57.110176	1421.061768	-214.257660	-190.069016	1155.815308	134.381699	-174.080414	1119.727051	-513.956665	-111.422012	893.062988	100.102192	-87.261593	861.141785	-477.965790	-93.806267	1012.468689	-66.742554	-97.870926	1015.064636	-348.002838	-288.821320	1027.102661	-154.137802	-286.411438	1024.310913	-255.369675	-287.616379	1025.706787	-204.753738	-283.413391	1253.245728	-211.770111	-33.591984	1276.133423	-216.425568	-194.491455	638.615845	-1.927259	-178.693604	501.821442	-48.116680	-228.092148	302.996826	3.728744	-240.331863	82.293335	-60.940704	-293.763550	53.749996	-125.969467	-96.956779	41.614632	-55.871658	-163.457642	680.455505	-434.894165	-186.671402	503.299652	-398.336243	-205.714737	360.876129	-462.904480	-198.723328	76.594116	-425.265045	-265.572784	60.929771	-376.941864	-57.889698	40.930023	-404.462219
176	1.75000000	-157.583847	1472.579834	-34.218605	-165.261948	1453.262573	-414.024750	-221.078674	1517.868408	-221.482269	-56.995964	1421.062866	-214.113342	-190.096573	1155.756104	134.395691	-174.204697	1119.675781	-513.905884	-111.519913	893.065674	100.069809	-87.406006	861.074371	-477.928696	-93.493492	1011.948059	-66.593529	-97.870461	1015.082764	-347.987640	-288.792572	1027.038330	-154.166122	-286.399719	1024.384888	-255.345169	-287.596146	1025.711609	-204.755646	-283.413025	1253.245239	-211.749512	-33.587135	1276.173340	-216.470428	-194.649826	638.580872	-2.014788	-178.717896	501.815155	-48.102859	-228.089767	302.907196	3.646631	-240.372192	82.231148	-60.944206	-293.792114	53.754391	-126.003479	-96.931793	41.738056	-55.792248	-163.526108	680.152771	-435.016022	-186.651169	503.265625	-398.320526	-205.763229	360.887482	-462.910828	-198.762100	76.631645	-425.273926	-265.562073	60.940510	-376.988159	-57.901413	40.932564	-404.448822
177	1.76000000	-157.636093	1472.555908	-34.279083	-165.269165	1453.152588	-413.940369	-221.035416	1517.830811	-221.442383	-57.081261	1421.071289	-214.176285	-190.231705	1155.755127	134.371414	-174.239487	1119.604614	-513.862427	-111.583225	893.043762	100.035652	-87.509060	861.000824	-477.875626	-93.746338	1012.444336	-66.739716	-97.834373	1015.142090	-348.064850	-288.735352	1026.998779	-154.162842	-286.377258	1024.299438	-255.418076	-287.556305	1025.649109	-204.790459	-283.403992	1253.236694	-211.837311	-33.589817	1276.102905	-216.429626	-194.777832	638.574463	-2.098029	-178.691284	501.780853	-48.115692	-228.117813	302.903473	3.649349	-240.324387	82.230156	-60.928413	-293.748901	53.678528	-125.903130	-97.014046	41.668045	-55.882256	-163.427017	680.337036	-434.788330	-186.632721	503.249603	-398.334381	-205.744080	360.837463	-462.880249	-198.804306	76.559586	-425.205933	-265.538330	60.886429	-377.083344	-57.855457	40.918201	-404.419403
